<svg width="663" height="599" viewBox="0 0 663 599" fill="none" xmlns="http://www.w3.org/2000/svg">
<mask id="mask0_59_476" style="mask-type:alpha" maskUnits="userSpaceOnUse" x="0" y="0" width="663" height="599">
<rect width="663" height="599" fill="#D9D9D9"/>
</mask>
<g mask="url(#mask0_59_476)">
<g filter="url(#filter0_i_59_476)">
<path d="M363.446 280.009C385.581 263.897 416.937 272.298 428.05 297.319L435.295 313.63C442.903 330.76 460.732 340.988 479.36 338.91L497.951 336.836C525.492 333.763 548.705 357.162 545.414 384.678L543.716 398.88C541.43 417.994 552.126 436.299 569.9 443.691L584.667 449.831C610.867 460.727 619.516 493.565 602.083 515.953L594.981 525.074C582.836 540.672 582.89 562.541 595.112 578.078L602.772 587.816C620.519 610.376 611.601 643.659 584.952 654.324L573.449 658.927C555.095 666.271 544.114 685.183 546.833 704.764L548.423 716.214C552.327 744.319 528.417 768.433 500.279 764.769L484.421 762.704C465.332 760.218 446.917 770.722 439.339 788.418L433.709 801.567C422.801 827.042 390.999 835.699 368.684 819.268L353.621 808.176C338.527 797.062 317.973 797.006 302.819 808.037L288.389 818.54C266.255 834.652 234.899 826.25 223.786 801.229L216.541 784.918C208.932 767.788 191.104 757.56 172.475 759.638L153.885 761.712C126.344 764.785 103.13 741.387 106.421 713.871L108.12 699.668C110.406 680.554 99.71 662.25 81.9353 654.858L67.1692 648.717C40.9691 637.822 32.3195 604.984 49.7526 582.595L56.8548 573.474C69.0001 557.877 68.946 536.008 56.7235 520.47L49.0635 510.733C31.3163 488.172 40.2345 454.889 66.8843 444.225L78.3869 439.622C96.7404 432.277 107.722 413.365 105.002 393.785L103.412 382.335C99.5091 354.229 123.419 330.115 151.557 333.78L167.415 335.845C186.504 338.331 204.919 327.827 212.496 310.13L218.127 296.981C229.034 271.506 260.837 262.849 283.152 279.281L298.215 290.372C313.308 301.486 333.862 301.543 349.017 290.512L363.446 280.009Z" fill="#0099FF"/>
</g>
</g>
<defs>
<filter id="filter0_i_59_476" x="39.8445" y="270.893" width="596.147" height="580.763" filterUnits="userSpaceOnUse" color-interpolation-filters="sRGB">
<feFlood flood-opacity="0" result="BackgroundImageFix"/>
<feBlend mode="normal" in="SourceGraphic" in2="BackgroundImageFix" result="shape"/>
<feColorMatrix in="SourceAlpha" type="matrix" values="0 0 0 0 0 0 0 0 0 0 0 0 0 0 0 0 0 0 127 0" result="hardAlpha"/>
<feOffset dx="24" dy="24"/>
<feGaussianBlur stdDeviation="24"/>
<feComposite in2="hardAlpha" operator="arithmetic" k2="-1" k3="1"/>
<feColorMatrix type="matrix" values="0 0 0 0 1 0 0 0 0 1 0 0 0 0 1 0 0 0 0.38 0"/>
<feBlend mode="normal" in2="shape" result="effect1_innerShadow_59_476"/>
</filter>
</defs>
</svg>
